<svg xmlns="http://www.w3.org/2000/svg" width="20.365" height="20.361" viewBox="0 0 20.365 20.361">
  <g id="Facebook" transform="translate(10.183 10.181)">
    <g id="Facebook-2" data-name="Facebook" transform="translate(-10.183 -10.181)">
      <path id="Trazado_1" data-name="Trazado 1" d="M18.451,0H1.91A1.91,1.91,0,0,0,0,1.91V18.451a1.91,1.91,0,0,0,1.91,1.91H10.9V12.449H8.234V9.427H10.9V7.139c0-2.631,1.584-4.076,3.93-4.076a23.158,23.158,0,0,1,2.39.114V5.966H15.552c-1.275,0-1.515.607-1.515,1.495V9.423h3.054l-.4,3.022H14.041v7.916h4.414a1.91,1.91,0,0,0,1.91-1.91V1.91A1.916,1.916,0,0,0,18.451,0Z" fill="#fcfbfb"/>
    </g>
  </g>
</svg>
